<?xml version="1.0" encoding="utf-8"?>
<!-- Generator: Adobe Illustrator 27.0.1, SVG Export Plug-In . SVG Version: 6.00 Build 0)  -->
<svg version="1.1" xmlns="http://www.w3.org/2000/svg" xmlns:xlink="http://www.w3.org/1999/xlink" x="0px" y="0px"
	 viewBox="0 0 1920 1080" style="enable-background:new 0 0 1920 1080;" xml:space="preserve">
<style type="text/css">
	.st0{fill:#FFCC33;stroke:#000066;stroke-miterlimit:10;}
	.st1{fill:#000066;}
</style>
<g id="Layer_2">
	<rect x="0.5" y="0.5" class="st0" width="1921" height="1079"/>
</g>
<g id="Layer_1">
	<g>
		<path class="st1" d="M62.19,587.44h90.57c0,22.76,17.56,33.85,37.58,33.85c18.39,0,35.95-9.78,35.95-27.19
			c0-19.99-24.81-25.79-55.14-33.14c-46.06-11.45-104.87-25.56-104.87-98.12c0-62.76,46.11-98.71,121.26-98.71
			c76.4,0,120.22,39.22,120.22,104.06h-88.05c0-20.16-15.02-29.61-33.22-29.61c-15.64,0-30.67,6.77-30.67,21.65
			c0,18.1,24.02,24.09,54.03,31.63c46.91,12.1,108.24,27.77,108.24,100.55c0,69.6-53.49,105.73-127.49,105.73
			C112.61,698.14,62.19,656.9,62.19,587.44z"/>
		<path class="st1" d="M596.68,450.7h-86.57v239.64h-88.18V450.7h-86.58v-79.05h261.33V450.7z"/>
		<path class="st1" d="M635.86,371.65h88.96v318.69h-88.96V371.65z"/>
		<path class="st1" d="M771.06,587.44h90.57c0,22.76,17.56,33.85,37.58,33.85c18.39,0,35.95-9.78,35.95-27.19
			c0-19.99-24.81-25.79-55.14-33.14c-46.06-11.45-104.87-25.56-104.87-98.12c0-62.76,46.11-98.71,121.26-98.71
			c76.4,0,120.22,39.22,120.22,104.06h-88.05c0-20.16-15.02-29.61-33.22-29.61c-15.64,0-30.67,6.77-30.67,21.65
			c0,18.1,24.02,24.09,54.03,31.63c46.91,12.1,108.24,27.77,108.24,100.55c0,69.6-53.49,105.73-127.49,105.73
			C821.47,698.14,771.06,656.9,771.06,587.44z"/>
		<path class="st1" d="M1057.43,587.44H1148c0,22.76,17.56,33.85,37.58,33.85c18.39,0,35.95-9.78,35.95-27.19
			c0-19.99-24.81-25.79-55.14-33.14c-46.06-11.45-104.87-25.56-104.87-98.12c0-62.76,46.11-98.71,121.26-98.71
			c76.4,0,120.22,39.22,120.22,104.06h-88.05c0-20.16-15.02-29.61-33.22-29.61c-15.64,0-30.67,6.77-30.67,21.65
			c0,18.1,24.02,24.09,54.03,31.63c46.91,12.1,108.24,27.77,108.24,100.55c0,69.6-53.49,105.73-127.49,105.73
			C1107.84,698.14,1057.43,656.9,1057.43,587.44z"/>
		<path class="st1" d="M1567.07,614.19v76.15h-207.77V371.65h203.92v75.89h-116.51v46.92h104.67v72.02h-104.67v47.71H1567.07z"/>
		<path class="st1" d="M1601.94,587.44h90.57c0,22.76,17.56,33.85,37.58,33.85c18.39,0,35.95-9.78,35.95-27.19
			c0-19.99-24.81-25.79-55.14-33.14c-46.06-11.45-104.87-25.56-104.87-98.12c0-62.76,46.11-98.71,121.26-98.71
			c76.4,0,120.22,39.22,120.22,104.06h-88.05c0-20.16-15.02-29.61-33.22-29.61c-15.64,0-30.67,6.77-30.67,21.65
			c0,18.1,24.02,24.09,54.03,31.63c46.91,12.1,108.24,27.77,108.24,100.55c0,69.6-53.49,105.73-127.49,105.73
			C1652.35,698.14,1601.94,656.9,1601.94,587.44z"/>
	</g>
	<g>
	</g>
	<g>
	</g>
	<g>
	</g>
	<g>
	</g>
	<g>
	</g>
	<g>
	</g>
	<g>
	</g>
	<g>
	</g>
	<g>
	</g>
	<g>
	</g>
	<g>
	</g>
	<g>
	</g>
	<g>
	</g>
	<g>
	</g>
	<g>
	</g>
</g>
</svg>
